<?xml version="1.0" encoding="UTF-8" standalone="no"?>
<!-- Generator: Adobe Illustrator 24.2.0, SVG Export Plug-In . SVG Version: 6.00 Build 0)  -->

<svg
   version="1.1"
   id="Layer_1"
   x="0px"
   y="0px"
   viewBox="0 0 101.28 47.720001"
   xml:space="preserve"
   sodipodi:docname="VTLogo.svg"
   inkscape:version="1.4.2 (f4327f4, 2025-05-13)"
   width="101.28"
   height="47.720001"
   xmlns:inkscape="http://www.inkscape.org/namespaces/inkscape"
   xmlns:sodipodi="http://sodipodi.sourceforge.net/DTD/sodipodi-0.dtd"
   xmlns="http://www.w3.org/2000/svg"
   xmlns:svg="http://www.w3.org/2000/svg"><defs
   id="defs15" /><sodipodi:namedview
   id="namedview15"
   pagecolor="#505050"
   bordercolor="#eeeeee"
   borderopacity="1"
   inkscape:showpageshadow="0"
   inkscape:pageopacity="0"
   inkscape:pagecheckerboard="0"
   inkscape:deskcolor="#505050"
   showgrid="false"
   inkscape:zoom="7.4722222"
   inkscape:cx="92.810409"
   inkscape:cy="32.587361"
   inkscape:window-width="1920"
   inkscape:window-height="1009"
   inkscape:window-x="-8"
   inkscape:window-y="-8"
   inkscape:window-maximized="1"
   inkscape:current-layer="Layer_1"
   showguides="true"><inkscape:grid
     id="grid15"
     units="px"
     originx="0"
     originy="-3.5527137e-15"
     spacingx="1"
     spacingy="1"
     empcolor="#0099e5"
     empopacity="0.30196078"
     color="#0099e5"
     opacity="0.14902"
     empspacing="5"
     enabled="true"
     visible="false" /></sodipodi:namedview>
<style
   type="text/css"
   id="style1">
	.st0{fill:#83003F;}
	.st1{fill:#F57F29;}
</style>
<g
   id="g1"
   transform="translate(-51.7,-16.69)">
	<path
   class="st0"
   d="m 108.92,16.7 c -6.48,0 -12.45,3.55 -15.53,9.26 l -3.8,7.02 -0.44,0.82 -0.43,0.79 v 0 L 77.25,55.8 58.51,20.78 h 8.33 l 6.71,12.47 3.52,6.54 3.63,-6.48 7.03,-12.54 h 6.08 c 1.47,-1.63 3.18,-3.01 5.07,-4.08 H 85.35 L 77.15,31.31 69.28,16.7 H 51.7 l 25.52,47.71 14.21,-26.26 2.36,-4.35 0.44,-0.82 2.73,-5.05 c 0.15,-0.28 0.31,-0.54 0.47,-0.81 1.82,-2.88 4.64,-4.95 7.87,-5.84 0.88,-0.24 1.79,-0.4 2.72,-0.47 0.31,-0.02 0.62,-0.03 0.93,-0.03 h 37.2 l -3.76,7 h -17.21 l -1.15,2.16 -15.92,29.92 h -8.44 l 13.97,-25.94 3.24,-6.02 H 100.12 C 99.15,29.43 97.78,32 97.78,32 h 12.25 l -17.2,31.95 h 17.73 l 17.08,-32.09 h 17.2 l 8.14,-15.16 z"
   id="path1" />
</g>

</svg>
